#!OML:ASF H:\Terrain\Patient Classification 1\Terrain2\Thursday\justin.ASF
:FULLY-SPECIFIED
:DEGREES
2596
root -4.09569 20.3866 11.393 951.615 81.657 -490.361
lowerback 9.24589 1.43455 3.91699
upperback 4.38564 2.46676 2.75894
thorax -0.58991 1.34313 0.416209
lowerneck -11.2854 -3.2344 -9.57501
upperneck 38.5416 -1.51244 3.89709
head 15.6586 -0.860706 3.3265
rclavicle 1.97791e-014 2.5842e-014
rhumerus -30.4732 -6.48239 -80.2787
rradius 37.6663
rwrist -11.992
rhand -20.5169 11.4954
rfingers 7.12502
rthumb 5.84074 -18.4041
lclavicle 1.97791e-014 2.5842e-014
lhumerus -34.6905 4.92219 82.9531
lradius 42.1131
lwrist 5.34616
lhand -20.5415 19.78
lfingers 7.12502
lthumb 5.817 49.6802
rfemur -10.5672 -8.28636 28.722
rtibia 36.0945
rfoot -24.1597 -0.215404
rtoes 13.7996
lfemur -25.467 1.50848 -13.7477
ltibia 48.3733
lfoot -16.0043 -7.2024
ltoes 11.3655
2597
root -4.07793 20.3946 11.3912 951.609 81.2567 -490.265
lowerback 9.28587 1.42176 4.53688
upperback 4.45239 2.50741 2.7498
thorax -0.513014 1.37673 0.0583647
lowerneck -11.3148 -3.3223 -9.60043
upperneck 38.5557 -1.71496 4.11934
head 15.6931 -0.919018 3.39692
rclavicle -1.18277e-014 -1.88845e-014
rhumerus -30.4864 -6.59854 -80.2772
rradius 37.6054
rwrist -12.1655
rhand -20.7035 11.3017
rfingers 7.12502
rthumb 5.66061 -18.6027
lclavicle -1.18277e-014 -1.88845e-014
lhumerus -34.7061 4.5869 82.9674
lradius 41.7315
lwrist 5.73994
lhand -20.6615 19.7042
lfingers 7.12502
lthumb 5.70115 49.6075
rfemur -10.3204 -8.70653 29.0036
rtibia 35.9417
rfoot -24.2139 -0.0762878
rtoes 13.9925
lfemur -25.554 1.71171 -13.5376
ltibia 48.6498
lfoot -16.412 -6.97634
ltoes 11.1555
2598
root -4.06011 20.4049 11.3908 950.806 80.9141 -490.909
lowerback 9.42582 1.34262 4.94604
upperback 4.51101 2.45224 2.78759
thorax -0.513789 1.35866 -0.128321
lowerneck -11.2846 -3.34769 -9.63445
upperneck 38.4832 -1.77571 4.182
head 15.6558 -0.940288 3.41722
rclavicle 2.48481e-015 1.53064e-014
rhumerus -30.4234 -6.69089 -80.2337
rradius 37.4363
rwrist -12.2701
rhand -20.8876 11.3341
rfingers 7.12502
rthumb 5.48283 -18.575
lclavicle 2.48481e-015 1.53064e-014
lhumerus -34.6934 4.34676 82.9682
lradius 41.207
lwrist 5.85767
lhand -20.4124 19.7178
lfingers 7.12502
lthumb 5.94171 49.6145
rfemur -9.91065 -8.84818 29.1631
rtibia 35.7342
rfoot -24.2695 0.167746
rtoes 15.3828
lfemur -25.5622 1.83837 -13.445
ltibia 48.8704
lfoot -17.0022 -6.68505
ltoes 11.1813
2599
root -4.03587 20.4054 11.3973 951.02 80.6487 -490.819
lowerback 9.20584 1.27128 5.10989
upperback 4.53101 2.36 2.91854
thorax -0.374113 1.31832 -0.0680199
lowerneck -11.2294 -3.31328 -9.84641
upperneck 38.3591 -1.67913 4.17346
head 15.5762 -0.931868 3.46031
rclavicle -3.0911e-014 -1.98785e-016
rhumerus -30.2282 -6.59391 -80.102
rradius 37.1597
rwrist -12.0953
rhand -21.0999 11.639
rfingers 7.12502
rthumb 5.27788 -18.2752
lclavicle -3.0911e-014 -1.98785e-016
lhumerus -34.726 4.68824 82.9473
lradius 40.6112
lwrist 5.45445
lhand -20.4679 20.1122
lfingers 7.12502
lthumb 5.88805 50.0104
rfemur -9.7766 -8.58475 29.455
rtibia 35.4869
rfoot -24.3232 0.259327
rtoes 17.0805
lfemur -25.8668 2.42931 -13.3759
ltibia 49.063
lfoot -17.7593 -6.14086
ltoes 8.45768
2600
root -4.01085 20.4102 11.3965 950.528 80.7197 -491.613
lowerback 8.86715 1.26012 5.08856
upperback 4.50307 2.31087 2.81851
thorax -0.215498 1.29404 -0.144928
lowerneck -11.3138 -3.34462 -9.93829
upperneck 38.3691 -1.68666 4.15154
head 15.6056 -0.953421 3.46632
rclavicle -4.46769e-014 -4.41302e-014
rhumerus -30.0951 -6.6723 -80.068
rradius 36.925
rwrist -11.808
rhand -21.1949 11.6532
rfingers 7.12502
rthumb 5.18614 -18.2634
lclavicle -4.46769e-014 -4.41302e-014
lhumerus -34.8543 5.21088 82.6968
lradius 40.1059
lwrist 5.00684
lhand -20.456 20.3423
lfingers 7.12502
lthumb 5.89956 50.2401
rfemur -9.86968 -8.44003 29.3287
rtibia 35.1421
rfoot -24.1957 0.429124
rtoes 17.9566
lfemur -26.3125 2.87716 -13.7708
ltibia 49.2507
lfoot -18.3998 -5.51291
ltoes 6.7164
2601
root -3.99036 20.4141 11.3942 951.504 80.3424 -490.604
lowerback 8.92912 1.24404 5.58521
upperback 4.49449 2.34097 2.91425
thorax -0.239375 1.31766 -0.326499
lowerneck -11.4078 -3.4219 -10.0736
upperneck 38.4845 -1.75024 4.17879
head 15.6989 -0.995993 3.49851
rclavicle -3.03147e-014 2.5842e-015
rhumerus -30.0951 -6.73704 -79.958
rradius 36.6937
rwrist -11.8847
rhand -21.4222 11.6
rfingers 7.12502
rthumb 4.96666 -18.3218
lclavicle -3.03147e-014 2.5842e-015
lhumerus -35.0803 5.71118 82.5679
lradius 39.6113
lwrist 4.3618
lhand -20.1539 20.1284
lfingers 7.12502
lthumb 6.19123 50.018
rfemur -9.62449 -8.42525 29.7385
rtibia 34.7575
rfoot -24.0665 0.423624
rtoes 17.9869
lfemur -26.4607 3.08086 -13.4899
ltibia 49.4246
lfoot -18.9091 -5.37603
ltoes 6.79621
2602
root -3.96647 20.4008 11.3991 955.299 79.2172 -486.54
lowerback 9.1022 1.1891 6.84973
upperback 4.53516 2.41375 3.34395
thorax -0.249379 1.38026 -0.593281
lowerneck -11.2677 -3.39223 -10.2488
upperneck 38.3978 -1.72787 4.33269
head 15.6238 -0.987999 3.59663
rclavicle -1.59028e-015 5.36719e-015
rhumerus -30.134 -6.72165 -79.808
rradius 36.531
rwrist -12.1932
rhand -21.7036 11.8336
rfingers 7.12502
rthumb 4.69502 -18.0943
lclavicle -1.59028e-015 5.36719e-015
lhumerus -35.3246 6.26816 82.5708
lradius 39.1613
lwrist 3.80513
lhand -19.8926 20.1748
lfingers 7.12502
lthumb 6.4435 50.0568
rfemur -9.16989 -8.58541 31.2235
rtibia 34.3953
rfoot -23.9599 0.0461875
rtoes 16.3233
lfemur -26.4431 3.49336 -12.0618
ltibia 49.5991
lfoot -19.2174 -5.99652
ltoes 8.77901
2603
root -3.94309 20.4023 11.4059 955.968 78.7276 -485.957
lowerback 8.9895 1.19336 7.28607
upperback 4.51445 2.45206 3.46412
thorax -0.191258 1.40851 -0.709687
lowerneck -11.0942 -3.34267 -10.1296
upperneck 38.2453 -1.72864 4.37738
head 15.5001 -0.961609 3.58687
rclavicle -1.72943e-014 -2.44505e-014
rhumerus -30.1666 -6.91765 -79.7296
rradius 36.5315
rwrist -12.4248
rhand -21.5666 11.6894
rfingers 7.12502
rthumb 4.82727 -18.2356
lclavicle -1.72943e-014 -2.44505e-014
lhumerus -35.4916 6.69873 82.4559
lradius 38.7815
lwrist 3.4101
lhand -19.5051 20.6726
lfingers 7.12502
lthumb 6.81754 50.5428
rfemur -9.09682 -8.73532 31.7822
rtibia 34.1059
rfoot -23.7945 -0.0703937
rtoes 15.7675
lfemur -26.6981 3.94558 -11.7066
ltibia 49.6203
lfoot -19.3192 -6.49488
ltoes 9.67552
2604
root -3.92302 20.3982 11.4126 953.006 78.8615 -489.247
lowerback 8.753 1.2611 6.89704
upperback 4.42204 2.47422 3.22921
thorax -0.163796 1.40805 -0.734019
lowerneck -11.1325 -3.47102 -9.76036
upperneck 38.389 -1.95237 4.26114
head 15.594 -1.01487 3.44278
rclavicle 1.03368e-014 3.97569e-015
rhumerus -30.2782 -7.36857 -79.6647
rradius 36.5693
rwrist -12.7374
rhand -21.3623 11.2567
rfingers 7.12502
rthumb 5.02452 -18.6637
lclavicle 1.03368e-014 3.97569e-015
lhumerus -35.5742 6.70964 82.2751
lradius 38.3167
lwrist 3.03725
lhand -19.3805 20.8945
lfingers 7.12502
lthumb 6.93786 50.7608
rfemur -9.28833 -9.18928 31.3532
rtibia 33.8345
rfoot -23.5823 -0.615009
rtoes 13.0001
lfemur -27.2042 4.15551 -12.5052
ltibia 49.5571
lfoot -19.5209 -6.53743
ltoes 10.1425
2605
root -3.90329 20.3971 11.4215 950.906 78.5644 -491.327
lowerback 8.8695 1.26627 7.02556
upperback 4.3945 2.49911 3.07662
thorax -0.241714 1.41999 -0.969599
lowerneck -11.2105 -3.66699 -9.41096
upperneck 38.5934 -2.28588 4.20257
head 15.7399 -1.10881 3.3119
rclavicle 1.59525e-014 -1.13307e-014
rhumerus -30.4261 -8.05024 -79.5899
rradius 36.4989
rwrist -12.8711
rhand -21.4695 11.1223
rfingers 7.12502
rthumb 4.92101 -18.8005
lclavicle 1.59525e-014 -1.13307e-014
lhumerus -35.616 6.38463 82.0748
lradius 37.8014
lwrist 2.96325
lhand -19.3019 20.7351
lfingers 7.12502
lthumb 7.01376 50.5989
rfemur -9.15434 -9.55731 31.3542
rtibia 33.76
rfoot -23.5819 -0.871955
rtoes 12.6346
lfemur -27.2767 4.19999 -12.7193
ltibia 49.2843
lfoot -19.8083 -6.39656
ltoes 10.3988
2606
root -3.88966 20.4012 11.4294 950.938 78.0397 -490.928
lowerback 9.31877 1.21717 7.49476
upperback 4.51377 2.52953 3.19422
thorax -0.345024 1.448 -1.12228
lowerneck -11.2402 -3.75253 -9.42136
upperneck 38.5407 -2.43007 4.24689
head 15.7352 -1.16493 3.30742
rclavicle 2.33075e-014 6.93758e-014
rhumerus -30.3428 -8.45777 -79.4283
rradius 36.3051
rwrist -12.7654
rhand -21.4626 11.0474
rfingers 7.12502
rthumb 4.9277 -18.8753
lclavicle 2.33075e-014 6.93758e-014
lhumerus -35.6026 6.15628 82.1398
lradius 37.3284
lwrist 3.12685
lhand -19.018 20.8599
lfingers 7.12502
lthumb 7.28777 50.7144
rfemur -8.70834 -9.62153 31.7604
rtibia 33.9156
rfoot -23.8098 -0.497512
rtoes 15.7834
lfemur -26.9085 4.31873 -12.3611
ltibia 48.8261
lfoot -20.0065 -6.02533
ltoes 7.66233
2607
root -3.87597 20.4151 11.4336 949.006 78.4423 -493.015
lowerback 9.29265 1.29924 6.82664
upperback 4.55254 2.56958 3.08953
thorax -0.315777 1.45797 -0.863195
lowerneck -11.2057 -3.78218 -9.66715
upperneck 38.4032 -2.46443 4.35909
head 15.6694 -1.20125 3.38819
rclavicle 2.57426e-014 -1.37161e-014
rhumerus -30.0958 -8.64963 -79.2828
rradius 35.9693
rwrist -12.4829
rhand -20.9614 11.1564
rfingers 7.12502
rthumb 5.4116 -18.7545
lclavicle 2.57426e-014 -1.37161e-014
lhumerus -35.7161 6.33637 82.1947
lradius 36.9545
lwrist 3.17343
lhand -18.9148 21.0386
lfingers 7.12502
lthumb 7.38744 50.8896
rfemur -8.69426 -9.30027 31.1529
rtibia 33.8408
rfoot -23.8429 -0.216572
rtoes 18.2692
lfemur -27.0526 4.50635 -13.1471
ltibia 48.4824
lfoot -19.9634 -5.95842
ltoes 9.00247
2608
root -3.85594 20.4241 11.4314 942.491 79.9192 -500.462
lowerback 8.63813 1.45117 4.57236
upperback 4.34633 2.49988 2.62195
thorax -0.259924 1.37389 -0.0727778
lowerneck -11.1642 -3.73201 -10.006
upperneck 38.3808 -2.35618 4.50832
head 15.6497 -1.18598 3.53024
rclavicle 1.19271e-014 -9.93923e-016
rhumerus -29.9665 -8.31145 -79.2331
rradius 35.731
rwrist -12.3935
rhand -20.5024 11.5996
rfingers 7.12502
rthumb 5.85474 -18.2996
lclavicle 1.19271e-014 -9.93923e-016
lhumerus -36.1522 7.30112 81.8858
lradius 36.637
lwrist 2.76986
lhand -18.982 20.6446
lfingers 7.12502
lthumb 7.32255 50.4979
rfemur -9.55935 -8.97864 29.1603
rtibia 33.7432
rfoot -23.7167 -0.571605
rtoes 16.6716
lfemur -27.8387 4.69951 -15.6042
ltibia 48.0471
lfoot -19.9407 -5.51077
ltoes 11.609
2609
root -3.8379 20.3854 11.4773 950.17 77.836 -492.161
lowerback 9.35721 1.21726 6.46351
upperback 4.34682 2.46136 3.5176
thorax -0.609739 1.38523 -0.217641
lowerneck -11.1364 -3.71635 -10.2187
upperneck 38.4256 -2.31813 4.64106
head 15.6702 -1.18259 3.63504
rclavicle -4.1546e-014 -1.8487e-014
rhumerus -30.1392 -7.66875 -79.2484
rradius 35.8844
rwrist -12.8556
rhand -20.5881 11.5523
rfingers 7.12502
rthumb 5.77204 -18.3491
lclavicle -4.1546e-014 -1.8487e-014
lhumerus -36.5737 8.05367 81.5909
lradius 36.2334
lwrist 2.1814
lhand -18.9001 20.2083
lfingers 7.12502
lthumb 7.40154 50.0588
rfemur -9.02696 -8.40462 32.2947
rtibia 33.6576
rfoot -23.8296 -2.00065
rtoes 15.0158
lfemur -27.6027 5.3599 -12.7232
ltibia 47.7544
lfoot -19.8807 -5.0497
ltoes 7.14669
